<svg width="114" height="31" viewBox="0 0 114 31" fill="none" xmlns="http://www.w3.org/2000/svg">
<path d="M32.676 6.34934H38.528C39.368 6.34934 40.108 6.47334 40.75 6.71934C41.409 6.96734 41.952 7.29634 42.38 7.70934C42.808 8.12034 43.129 8.60634 43.343 9.16734C43.573 9.72734 43.689 10.3123 43.689 10.9223C43.689 11.8123 43.524 12.5523 43.195 13.1463C42.8773 13.7285 42.4187 14.2215 41.861 14.5803C42.734 14.9103 43.45 15.4283 44.01 16.1373C44.57 16.8293 44.85 17.7683 44.85 18.9543C44.85 19.7453 44.701 20.4543 44.405 21.0803C44.1133 21.6841 43.6915 22.2158 43.17 22.6373C42.643 23.0493 42.01 23.3623 41.269 23.5773C40.528 23.7913 39.705 23.8973 38.799 23.8973H32.676V6.35034V6.34934ZM38.479 13.9123C39.417 13.9123 40.141 13.6573 40.651 13.1463C41.178 12.6193 41.441 11.9603 41.441 11.1693C41.441 10.8063 41.376 10.4603 41.244 10.1313C41.1174 9.79301 40.9145 9.48844 40.651 9.24134C40.3829 8.9807 40.0634 8.77875 39.713 8.64834C39.3202 8.49421 38.9009 8.41845 38.479 8.42534H34.923V13.9123H38.479ZM39.071 21.8223C40.257 21.8223 41.137 21.5423 41.713 20.9823C42.289 20.4213 42.577 19.7123 42.577 18.8563C42.577 17.9993 42.289 17.2823 41.713 16.7063C41.137 16.1293 40.257 15.8403 39.071 15.8403H34.923V21.8223H39.071ZM57.734 22.6623C57.2096 23.1389 56.5971 23.5085 55.931 23.7503C55.248 23.9851 54.5302 24.1021 53.808 24.0963C52.9435 24.1046 52.0864 23.9365 51.289 23.6023C50.5423 23.2907 49.8631 22.8374 49.289 22.2673C48.7246 21.6835 48.2799 20.9949 47.98 20.2403C47.6651 19.4377 47.506 18.5825 47.511 17.7203C47.511 16.8303 47.668 15.9973 47.981 15.2233C48.2726 14.4647 48.7179 13.7746 49.289 13.1963C49.8576 12.6133 50.5378 12.1508 51.289 11.8363C52.0864 11.5021 52.9435 11.3341 53.808 11.3423C54.565 11.3423 55.273 11.4663 55.931 11.7133C56.606 11.9433 57.207 12.2983 57.734 12.7763V11.5403H59.857V23.8983H57.734V22.6633V22.6623ZM53.857 22.0943C54.746 22.0943 55.52 21.9043 56.178 21.5263C56.853 21.1463 57.372 20.6693 57.734 20.0923V15.3463C57.372 14.7703 56.853 14.2923 56.178 13.9133C55.52 13.5343 54.746 13.3453 53.858 13.3453C53.248 13.3453 52.688 13.4603 52.178 13.6913C51.6847 13.905 51.2395 14.2158 50.869 14.6053C50.507 15.0013 50.219 15.4703 50.005 16.0143C49.8043 16.5602 49.7041 17.1378 49.709 17.7193C49.709 18.3293 49.808 18.9063 50.005 19.4493C50.219 19.9773 50.507 20.4393 50.869 20.8343C51.249 21.2293 51.684 21.5423 52.179 21.7733C52.689 21.9873 53.249 22.0943 53.857 22.0943ZM72.701 16.5543C72.701 15.6964 72.3602 14.8735 71.7535 14.2669C71.1468 13.6602 70.324 13.3193 69.466 13.3193C68.608 13.3193 67.7852 13.6602 67.1785 14.2669C66.5718 14.8735 66.231 15.6964 66.231 16.5543V23.8983H64.108V16.6273C64.108 15.9237 64.2466 15.227 64.5159 14.5769C64.7851 13.9269 65.1798 13.3362 65.6773 12.8387C66.1749 12.3411 66.7655 11.9465 67.4156 11.6772C68.0656 11.4079 68.7624 11.2693 69.466 11.2693C70.1696 11.2693 70.8664 11.4079 71.5164 11.6772C72.1665 11.9465 72.7571 12.3411 73.2547 12.8387C73.7522 13.3362 74.1469 13.9269 74.4161 14.5769C74.6854 15.227 74.824 15.9237 74.824 16.6273V23.8983H72.701V16.5553V16.5543ZM84.577 24.0963C83.655 24.0963 82.807 23.9313 82.034 23.6023C81.2828 23.2879 80.6026 22.8253 80.034 22.2423C79.4674 21.6557 79.0151 20.9686 78.7 20.2163C78.3835 19.4222 78.2242 18.5742 78.231 17.7193C78.231 16.8293 78.387 15.9973 78.701 15.2233C79.029 14.4483 79.474 13.7733 80.034 13.1963C80.6026 12.6133 81.2828 12.1508 82.034 11.8363C82.807 11.5073 83.655 11.3423 84.577 11.3423C85.614 11.3423 86.519 11.5323 87.293 11.9113C88.083 12.2733 88.75 12.7353 89.293 13.2953L87.935 14.7783C87.5154 14.3656 87.0319 14.0235 86.503 13.7653C85.96 13.4853 85.318 13.3453 84.577 13.3453C83.967 13.3453 83.408 13.4603 82.897 13.6913C82.404 13.9053 81.967 14.2093 81.589 14.6053C81.227 15.0013 80.939 15.4703 80.725 16.0143C80.5243 16.5602 80.4241 17.1378 80.429 17.7193C80.429 18.3293 80.527 18.9063 80.725 19.4493C80.939 19.9773 81.227 20.4393 81.589 20.8343C81.9629 21.2263 82.4069 21.5448 82.898 21.7733C83.408 21.9873 83.968 22.0943 84.577 22.0943C85.317 22.0943 85.96 21.9543 86.503 21.6743C87.0319 21.4162 87.5155 21.0741 87.935 20.6613L89.293 22.1443C88.75 22.7043 88.083 23.1743 87.293 23.5523C86.519 23.9153 85.613 24.0963 84.577 24.0963ZM97.732 24.0963C96.794 24.0963 95.93 23.9313 95.14 23.6023C94.3834 23.2842 93.6957 22.8223 93.115 22.2423C92.5488 21.6556 92.0968 20.9685 91.782 20.2163C91.4652 19.4223 91.3056 18.5743 91.312 17.7193C91.312 16.8293 91.469 15.9973 91.782 15.2233C92.111 14.4483 92.555 13.7733 93.115 13.1963C93.6957 12.6163 94.3834 12.1545 95.14 11.8363C95.93 11.5073 96.794 11.3423 97.732 11.3423C98.654 11.3423 99.502 11.5073 100.276 11.8373C101.066 12.1673 101.741 12.6193 102.3 13.1973C102.878 13.7752 103.331 14.4645 103.634 15.2233C103.963 15.9973 104.128 16.8293 104.128 17.7193C104.128 18.6093 103.963 19.4413 103.634 20.2163C103.331 20.9752 102.877 21.6645 102.3 22.2423C101.726 22.8295 101.037 23.2925 100.276 23.6023C99.502 23.9323 98.654 24.0963 97.732 24.0963ZM97.732 22.0943C98.358 22.0943 98.926 21.9873 99.436 21.7733C99.963 21.5433 100.407 21.2293 100.77 20.8333C101.149 20.4357 101.443 19.9648 101.634 19.4493C101.833 18.8944 101.933 18.3089 101.93 17.7193C101.93 17.1093 101.831 16.5413 101.634 16.0143C101.448 15.4895 101.153 15.0095 100.77 14.6053C100.399 14.2047 99.9435 13.8923 99.436 13.6913C98.8994 13.4552 98.3182 13.3372 97.732 13.3453C97.1382 13.339 96.5496 13.4568 96.004 13.6913C95.5011 13.9004 95.0472 14.2116 94.671 14.6053C94.308 15.0013 94.021 15.4703 93.806 16.0143C93.6053 16.5602 93.505 17.1378 93.51 17.7193C93.51 18.3293 93.609 18.9063 93.806 19.4493C94.02 19.9773 94.308 20.4393 94.671 20.8343C95.0506 21.2304 95.5032 21.5493 96.004 21.7733C96.5536 21.9918 97.1406 22.1008 97.732 22.0943ZM107.548 11.5403H109.672V12.8603C110.1 12.3323 110.602 12.0753 111.178 11.8123C111.775 11.544 112.424 11.4089 113.079 11.4163C113.376 11.4163 113.664 11.4413 113.944 11.4903V13.6903C113.557 13.5863 113.158 13.5365 112.758 13.5423C112.083 13.5423 111.466 13.7073 110.907 14.0363C110.589 14.2283 110.317 14.5213 110.09 14.8603C109.766 15.3423 109.672 15.9333 109.672 16.5133V23.8983H107.548V11.5403ZM8.476 0.152344L1.004 4.47034L8.476 8.81034L15.948 4.47034L8.476 0.152344ZM0 14.8293L7.455 19.1333V10.5163L0 6.21234V14.8283V14.8293ZM0 25.7713L7.455 30.0743V21.4583L0 17.1553V25.7713ZM16.952 14.8293L9.497 19.1333V10.5163L16.952 6.21334V14.8293ZM20 15.3953V24.0123L9.498 30.0743V21.4583L20 15.3953Z" fill="black"/>
</svg>
