<svg width="739" height="920" viewBox="0 0 739 920" fill="none" xmlns="http://www.w3.org/2000/svg">
<path d="M342.705 863.363L516.685 860.892L583.423 1068.79L409.285 1070.76L342.705 863.363Z" fill="#525252"/>
<path d="M516.683 860.892L655.174 759.784L721.913 967.679L583.58 1069.28L516.683 860.892Z" fill="#7C7C7C"/>
<path d="M419.169 807.223L480.206 762.573L654.839 760.437L516.842 861.386L342.863 863.857L419.169 807.223Z" fill="#686868"/>
<g opacity="0.9">
<path d="M261.806 611.357L435.785 608.887L502.524 816.781L328.386 818.758L261.806 611.357Z" fill="#525252"/>
<path d="M435.783 608.887L574.275 507.779L641.014 715.673L502.681 817.275L435.783 608.887Z" fill="#7C7C7C"/>
<path d="M338.269 555.218L399.306 510.567L573.939 508.432L435.943 609.381L261.963 611.851L338.269 555.218Z" fill="#686868"/>
</g>
<path d="M178.922 359.989L352.901 357.518L419.64 565.412L245.502 567.389L178.922 359.989Z" fill="#525252"/>
<path d="M352.9 357.518L491.391 256.41L558.13 464.305L419.797 565.906L352.9 357.518Z" fill="#7C7C7C"/>
<path d="M255.386 303.849L316.422 259.199L491.056 257.063L353.059 358.012L179.08 360.482L255.386 303.849Z" fill="#686868"/>
<g opacity="0.9">
<path d="M98.0225 107.983L272.002 105.512L338.741 313.407L164.603 315.384L98.0225 107.983Z" fill="#525252"/>
<path d="M272 105.513L410.492 4.40477L477.231 212.299L338.898 313.901L272 105.513Z" fill="#7C7C7C"/>
<path d="M174.486 51.8436L235.523 7.19313L410.156 5.05735L272.16 106.006L98.1802 108.477L174.486 51.8436Z" fill="#686868"/>
</g>
<path d="M17.123 -144.023L191.103 -146.493L257.841 61.401L83.7033 63.3778L17.123 -144.023Z" fill="#525252"/>
<path d="M191.101 -146.493L329.592 -247.601L396.331 -39.7064L257.998 61.8952L191.101 -146.493Z" fill="#7C7C7C"/>
</svg>
